<?xml version="1.0" encoding="UTF-8" standalone="no"?><!DOCTYPE svg PUBLIC "-//W3C//DTD SVG 1.1//EN" "http://www.w3.org/Graphics/SVG/1.1/DTD/svg11.dtd"><svg width="100%" height="100%" viewBox="0 0 160 105" version="1.1" xmlns="http://www.w3.org/2000/svg" xmlns:xlink="http://www.w3.org/1999/xlink" xml:space="preserve" xmlns:serif="http://www.serif.com/" style="fill-rule:evenodd;clip-rule:evenodd;stroke-linejoin:round;stroke-miterlimit:2;"><path id="path3187" d="M59.124,0.003c-0.84,-0.017 -1.695,0.047 -2.528,0.153c-5.624,0.76 -10.602,3.853 -14.912,7.405c-0.316,0.44 -0.989,0.723 -1.455,0.332c-4.727,-2.15 -9.557,-4.123 -14.631,-5.286c-5.233,-1.386 -11.073,-0.552 -15.601,2.451c-7.213,4.913 -10.908,14.148 -9.805,22.751c0.606,5.595 3.94,10.642 8.426,13.89c6.593,4.856 14.58,7.218 22.47,9.039c-7.658,5.201 -16.301,8.837 -23.951,14.044c7.604,5.259 15.896,9.485 23.619,14.58c8.253,5.208 14.849,12.629 22.955,18.052c5.125,3.528 10.883,6.506 17.158,7.149c6.463,0.627 12.883,-1.594 18.206,-5.158c5.817,-3.781 10.779,-8.663 15.244,-13.941c3.814,5.145 9.098,8.704 14.758,9.805c7.605,1.616 15.683,-1.466 21.295,-7.788c5.415,-5.967 8.432,-15.013 8.043,-23.874c-0.369,-11.564 -6.848,-22.392 -15.754,-26.657c1.779,-4.061 4.372,-7.672 7.66,-10.06c0.592,-0.557 1.53,-1.106 2.196,-0.409c0.805,1.859 1.916,3.595 3.422,4.724c2.849,2.331 6.8,2.346 9.702,0.179c3.046,-2.128 4.729,-6.589 4.29,-10.775c-0.388,-4.643 -3.555,-8.532 -7.303,-9.422c-4.351,-1.13 -9.135,2.308 -10.417,7.43c-0.03,0.898 -0.625,1.66 -1.354,1.813c-5.641,2.717 -10.092,8.322 -12.639,14.911c-5.308,-1.303 -10.954,-0.497 -15.856,2.273c0.099,-4.497 0.911,-9.121 3.089,-12.844c1.481,1.201 3.274,1.821 5.056,1.813c3.505,0.125 6.838,-2.535 8.298,-6.332c1.623,-3.944 0.851,-9 -1.634,-12.154c-1.774,-2.422 -4.505,-3.608 -7.149,-3.447c-1.202,0.073 -2.393,0.437 -3.473,1.072c-4.007,2.162 -6.084,8.217 -4.723,13.201c0.425,0.804 0.52,2.007 -0.103,2.707c-3.253,5.528 -4.292,12.578 -3.779,19.252c-1.175,1.078 -2.265,2.28 -3.268,3.575c-0.008,-0.009 -0.018,-0.016 -0.025,-0.025c-3.874,-4.605 -8.093,-8.95 -12.972,-12.486c-1.283,-0.777 -1.976,-2.125 -2.629,-3.422c-4.288,-7.659 -8.774,-15.405 -15.142,-21.525c-3.923,-3.873 -9.123,-6.941 -14.784,-6.996l0,0Zm-0.357,6c0.274,-0.011 0.54,0 0.817,0c4.048,0.043 7.859,1.912 10.826,4.571c4.968,4.339 8.222,10.204 11.49,15.856c-4.828,-1.824 -10.277,-2.292 -15.244,-0.715c-5.748,-5.683 -12.404,-10.411 -19.456,-14.324c-0.525,-0.235 -0.308,-1.025 0.204,-1.124c3.379,-2.251 7.25,-4.093 11.362,-4.264Zm-38.428,1.532c0.132,0 0.277,0.026 0.409,0.026c4.954,0.369 9.645,2.179 14.197,4.059c11.32,4.81 22.073,11.476 30.283,20.734c4.018,4.592 7.218,10.216 7.813,16.392c-10.146,-0.105 -20.354,-0.426 -30.411,-1.736c-8.404,-1.16 -16.872,-2.648 -24.64,-6.179c-4.222,-1.949 -8.418,-4.642 -10.724,-8.809c-2.5,-4.963 -2.068,-11.077 0.357,-15.984c2.183,-4.904 7.264,-8.557 12.716,-8.503l0,0Zm99.812,2.656c0.173,-0.016 0.359,-0.013 0.536,0c1.561,0.053 3.056,1.17 3.804,2.808c1.321,2.621 0.166,6.376 -2.119,7.584c-2.425,1.452 -5.616,-0.543 -6.205,-3.677c-0.723,-3.096 1.385,-6.479 3.984,-6.715Zm-101.369,3.881c-0.124,-0.008 -0.261,0 -0.383,0.025c-2.173,0.35 -2.937,3.557 -1.277,4.928c3.617,1.438 7.484,2.315 10.903,4.239c-2.275,0.897 -4.578,1.723 -6.869,2.579c-1.159,0.557 -2.558,0.668 -3.472,1.634c-1.5,1.62 -0.12,4.619 2.042,4.647c5.118,-1.498 9.998,-3.673 15.04,-5.413c7.402,4.245 14.382,9.168 21.014,14.529c1.004,0.675 1.767,1.769 2.962,2.119c2.049,0.526 4.023,-1.817 3.268,-3.754c-0.644,-1.021 -1.65,-1.733 -2.553,-2.502c-8.81,-7.007 -18.078,-13.58 -28.24,-18.486c-4.021,-1.814 -8.07,-3.767 -12.435,-4.545l0,0Zm132.111,2.477c1.697,-0.029 3.305,1.24 4.034,3.064c1.178,2.623 0.03,6.193 -2.195,7.353c-2.376,1.41 -5.517,-0.489 -6.18,-3.523c-0.861,-3.272 1.524,-6.965 4.341,-6.894Zm-78.439,13.711c4.735,0.022 9.296,1.763 13.252,4.264c0.366,1.925 0.692,3.857 0.97,5.797c2.598,19.028 0.523,38.595 -5.286,56.863c-3.153,1.317 -6.586,1.934 -10.009,1.711c-1.102,0.23 -2.27,-0.781 -2.094,-1.915c4.3,-13.766 6.201,-28.248 6.077,-42.667l3.013,0c0.026,-0.589 0.042,-1.173 0.051,-1.762c0.249,-7.41 -1.861,-14.981 -6.46,-20.861c-0.588,-0.42 -0.236,-1.467 0.486,-1.43l0,0Zm19.788,9.167c3.354,3.1 6.46,6.473 9.32,10.035l-2.094,5.132c-0.007,0.025 -0.018,0.051 -0.025,0.077c-2.06,6.726 -2.063,14.383 0,21.116c-0.026,0.044 -0.051,0.083 -0.077,0.128l1.941,4.494c-3.522,4.34 -7.42,8.388 -11.746,11.924c-0.255,0.162 -0.64,0.803 -0.97,0.434c-0.032,-0.621 0.325,-1.24 0.408,-1.864c4.129,-16.607 5.427,-33.982 3.294,-50.991c-0.016,-0.165 -0.034,-0.32 -0.051,-0.485l0,0Zm30.87,0.842c2.653,0 5.308,0.615 7.763,1.813c5.54,2.59 9.923,8.296 11.822,15.065c2.061,7.045 1.206,15.164 -2.12,21.423c-3.394,6.58 -9.508,10.906 -15.907,11.439c-6.803,0.707 -13.721,-3.119 -17.848,-9.601c-4.484,-6.777 -5.508,-16.52 -2.809,-24.537c2.95,-9.227 10.899,-15.669 19.099,-15.602Zm8.171,12.027c-2.756,-0.011 -5.243,2.295 -5.592,5.004c-0.51,2.786 1.497,5.644 4.137,6.409c2.916,1.004 6.274,-0.919 7.2,-3.804c1.307,-3.475 -1.71,-7.67 -5.413,-7.609c-0.117,-0.008 -0.215,-0.008 -0.332,0Zm-89.163,0.255c3.499,0.413 7.007,0.762 10.519,1.047c0.259,11.213 -0.998,22.45 -3.498,33.373c-2.989,-2.552 -5.853,-5.258 -8.885,-7.737c1.455,-8.729 2.081,-17.602 1.864,-26.453l0,-0.23Zm-5.541,1.021c0.145,7.339 -0.303,14.7 -1.354,21.959c-6.135,-3.644 -12.885,-6.342 -18.563,-10.724c1.017,-0.759 2.096,-1.46 3.192,-2.093c5.424,-3.1 11.539,-4.962 16.444,-8.937c0.096,-0.07 0.184,-0.135 0.281,-0.205Zm21.652,0.358c3.856,0.19 7.708,0.27 11.567,0.332c0.203,14.42 -1.897,28.873 -6.256,42.616c-3.458,-1.557 -6.618,-3.702 -9.626,-6.001c3,-12.002 4.475,-24.389 4.315,-36.768l0,-0.179Z"/></svg>